<svg width="35" height="44" viewBox="0 0 35 44" fill="none" xmlns="http://www.w3.org/2000/svg">
<path d="M27.8102 14.8582V30.9832C27.8102 32.9622 26.5417 34.5665 24.9769 34.5665H10.1019C8.53708 34.5665 7.26855 32.9622 7.26855 30.9832V12.1707" stroke="black" stroke-width="1.5" stroke-linecap="round" stroke-linejoin="round"/>
<path d="M23.9147 23.3685C23.9147 23.8632 23.5975 24.2643 23.2064 24.2643C22.8152 24.2643 22.498 23.8632 22.498 23.3685C22.498 22.8738 22.8152 22.4727 23.2064 22.4727C23.5975 22.4727 23.9147 22.8738 23.9147 23.3685Z" stroke="black" stroke-linecap="round" stroke-linejoin="round"/>
<path d="M24.9769 14.8582H9.74772C8.37851 14.8582 7.26855 13.4545 7.26855 11.7228C7.26855 9.99117 8.37851 8.5874 9.74772 8.5874H22.1436C23.7084 8.5874 24.9769 10.1917 24.9769 12.1707V14.8582ZM24.9769 14.8582H27.8102" stroke="black" stroke-width="1.5" stroke-linecap="round" stroke-linejoin="round"/>
</svg>
